<mxfile host="app.diagrams.net" agent="Mozilla/5.0 (Windows NT 10.0; Win64; x64) AppleWebKit/537.36 (KHTML, like Gecko) Chrome/132.0.0.0 Safari/537.36" version="26.0.15">
  <diagram name="第 1 页" id="TT9iFa5Pa8cM5fnBStFp">
    <mxGraphModel dx="909" dy="621" grid="1" gridSize="10" guides="1" tooltips="1" connect="1" arrows="1" fold="1" page="1" pageScale="1" pageWidth="827" pageHeight="1169" math="0" shadow="0">
      <root>
        <mxCell id="0" />
        <mxCell id="1" parent="0" />
        <mxCell id="AUJroj7MBI5FYO78L8DD-1" value="" style="shape=cube;whiteSpace=wrap;html=1;boundedLbl=1;backgroundOutline=1;darkOpacity=0.05;darkOpacity2=0.1;fillColor=#60a917;fontColor=#ffffff;strokeColor=#2D7600;" vertex="1" parent="1">
          <mxGeometry x="70" y="240" width="50" height="90" as="geometry" />
        </mxCell>
        <mxCell id="mYhhMWJ-sOo2fR_Xzeho-1" value="" style="shape=cube;whiteSpace=wrap;html=1;boundedLbl=1;backgroundOutline=1;darkOpacity=0.05;darkOpacity2=0.1;fillColor=#1ba1e2;fontColor=#ffffff;strokeColor=#006EAF;" vertex="1" parent="1">
          <mxGeometry x="170" y="120" width="50" height="90" as="geometry" />
        </mxCell>
        <mxCell id="mYhhMWJ-sOo2fR_Xzeho-2" value="" style="shape=cube;whiteSpace=wrap;html=1;boundedLbl=1;backgroundOutline=1;darkOpacity=0.05;darkOpacity2=0.1;fillColor=#1ba1e2;fontColor=#ffffff;strokeColor=#006EAF;" vertex="1" parent="1">
          <mxGeometry x="170.75" y="380" width="50" height="90" as="geometry" />
        </mxCell>
        <mxCell id="mYhhMWJ-sOo2fR_Xzeho-3" value="" style="shape=cube;whiteSpace=wrap;html=1;boundedLbl=1;backgroundOutline=1;darkOpacity=0.05;darkOpacity2=0.1;fillColor=#b1ddf0;strokeColor=#10739e;" vertex="1" parent="1">
          <mxGeometry x="280" y="120" width="50" height="90" as="geometry" />
        </mxCell>
        <mxCell id="mYhhMWJ-sOo2fR_Xzeho-4" value="" style="shape=cube;whiteSpace=wrap;html=1;boundedLbl=1;backgroundOutline=1;darkOpacity=0.05;darkOpacity2=0.1;fillColor=#bac8d3;strokeColor=#23445d;" vertex="1" parent="1">
          <mxGeometry x="388.5" y="120" width="50" height="90" as="geometry" />
        </mxCell>
        <mxCell id="mYhhMWJ-sOo2fR_Xzeho-5" value="" style="shape=cube;whiteSpace=wrap;html=1;boundedLbl=1;backgroundOutline=1;darkOpacity=0.05;darkOpacity2=0.1;fillColor=#b1ddf0;strokeColor=#10739e;" vertex="1" parent="1">
          <mxGeometry x="280.75" y="380" width="50" height="90" as="geometry" />
        </mxCell>
        <mxCell id="mYhhMWJ-sOo2fR_Xzeho-6" value="" style="shape=cube;whiteSpace=wrap;html=1;boundedLbl=1;backgroundOutline=1;darkOpacity=0.05;darkOpacity2=0.1;fillColor=#bac8d3;strokeColor=#23445d;" vertex="1" parent="1">
          <mxGeometry x="389.25" y="380" width="50" height="90" as="geometry" />
        </mxCell>
        <mxCell id="mYhhMWJ-sOo2fR_Xzeho-7" value="" style="shape=sumEllipse;perimeter=ellipsePerimeter;whiteSpace=wrap;html=1;backgroundOutline=1;fillColor=light-dark(#f7f6f9, #a18eb3);fontColor=#ffffff;strokeColor=#432D57;" vertex="1" parent="1">
          <mxGeometry x="470" y="270" width="30" height="30" as="geometry" />
        </mxCell>
        <mxCell id="mYhhMWJ-sOo2fR_Xzeho-8" value="" style="shape=cube;whiteSpace=wrap;html=1;boundedLbl=1;backgroundOutline=1;darkOpacity=0.05;darkOpacity2=0.1;fillColor=#f0a30a;fontColor=#000000;strokeColor=#BD7000;" vertex="1" parent="1">
          <mxGeometry x="560" y="240" width="50" height="90" as="geometry" />
        </mxCell>
        <mxCell id="mYhhMWJ-sOo2fR_Xzeho-9" value="" style="shape=cube;whiteSpace=wrap;html=1;boundedLbl=1;backgroundOutline=1;darkOpacity=0.05;darkOpacity2=0.1;fillColor=#e3c800;fontColor=#000000;strokeColor=#B09500;" vertex="1" parent="1">
          <mxGeometry x="670" y="240" width="50" height="90" as="geometry" />
        </mxCell>
        <mxCell id="mYhhMWJ-sOo2fR_Xzeho-11" value="" style="endArrow=classic;html=1;rounded=0;exitX=0;exitY=0;exitDx=50;exitDy=55;exitPerimeter=0;entryX=-0.039;entryY=0.606;entryDx=0;entryDy=0;entryPerimeter=0;" edge="1" parent="1">
          <mxGeometry width="50" height="50" relative="1" as="geometry">
            <mxPoint x="221.95" y="170.46" as="sourcePoint" />
            <mxPoint x="279.99999999999994" y="169.99999999999997" as="targetPoint" />
          </mxGeometry>
        </mxCell>
        <mxCell id="mYhhMWJ-sOo2fR_Xzeho-13" value="" style="endArrow=classic;html=1;rounded=0;exitX=0;exitY=0;exitDx=50;exitDy=55;exitPerimeter=0;entryX=-0.039;entryY=0.606;entryDx=0;entryDy=0;entryPerimeter=0;" edge="1" parent="1">
          <mxGeometry width="50" height="50" relative="1" as="geometry">
            <mxPoint x="11.949999999999989" y="285.06" as="sourcePoint" />
            <mxPoint x="69.99999999999994" y="284.59999999999997" as="targetPoint" />
          </mxGeometry>
        </mxCell>
        <mxCell id="mYhhMWJ-sOo2fR_Xzeho-14" value="" style="endArrow=classic;html=1;rounded=0;exitX=0;exitY=0;exitDx=50;exitDy=55;exitPerimeter=0;entryX=-0.039;entryY=0.606;entryDx=0;entryDy=0;entryPerimeter=0;" edge="1" parent="1">
          <mxGeometry width="50" height="50" relative="1" as="geometry">
            <mxPoint x="222.7" y="430.46000000000004" as="sourcePoint" />
            <mxPoint x="280.74999999999994" y="430" as="targetPoint" />
          </mxGeometry>
        </mxCell>
        <mxCell id="mYhhMWJ-sOo2fR_Xzeho-15" value="" style="endArrow=classic;html=1;rounded=0;exitX=0;exitY=0;exitDx=50;exitDy=55;exitPerimeter=0;entryX=-0.039;entryY=0.606;entryDx=0;entryDy=0;entryPerimeter=0;" edge="1" parent="1">
          <mxGeometry width="50" height="50" relative="1" as="geometry">
            <mxPoint x="331.2" y="430.46000000000004" as="sourcePoint" />
            <mxPoint x="389.24999999999994" y="430" as="targetPoint" />
          </mxGeometry>
        </mxCell>
        <mxCell id="mYhhMWJ-sOo2fR_Xzeho-16" value="" style="endArrow=classic;html=1;rounded=0;exitX=0;exitY=0;exitDx=50;exitDy=55;exitPerimeter=0;entryX=-0.039;entryY=0.606;entryDx=0;entryDy=0;entryPerimeter=0;" edge="1" parent="1">
          <mxGeometry width="50" height="50" relative="1" as="geometry">
            <mxPoint x="611.95" y="287.06000000000006" as="sourcePoint" />
            <mxPoint x="670" y="286.6" as="targetPoint" />
          </mxGeometry>
        </mxCell>
        <mxCell id="mYhhMWJ-sOo2fR_Xzeho-17" value="" style="endArrow=classic;html=1;rounded=0;exitX=0;exitY=0;exitDx=50;exitDy=55;exitPerimeter=0;entryX=-0.039;entryY=0.606;entryDx=0;entryDy=0;entryPerimeter=0;" edge="1" parent="1">
          <mxGeometry width="50" height="50" relative="1" as="geometry">
            <mxPoint x="501.95" y="285.06" as="sourcePoint" />
            <mxPoint x="560" y="284.59999999999997" as="targetPoint" />
          </mxGeometry>
        </mxCell>
        <mxCell id="mYhhMWJ-sOo2fR_Xzeho-18" value="PAM" style="text;html=1;align=center;verticalAlign=middle;resizable=0;points=[];autosize=1;strokeColor=none;fillColor=none;" vertex="1" parent="1">
          <mxGeometry x="225" y="148" width="50" height="30" as="geometry" />
        </mxCell>
        <mxCell id="mYhhMWJ-sOo2fR_Xzeho-21" value="Conv" style="text;html=1;align=center;verticalAlign=middle;resizable=0;points=[];autosize=1;strokeColor=none;fillColor=none;" vertex="1" parent="1">
          <mxGeometry x="330" y="148" width="50" height="30" as="geometry" />
        </mxCell>
        <mxCell id="mYhhMWJ-sOo2fR_Xzeho-23" value="" style="endArrow=classic;html=1;rounded=0;exitX=0;exitY=0;exitDx=50;exitDy=55;exitPerimeter=0;entryX=-0.039;entryY=0.606;entryDx=0;entryDy=0;entryPerimeter=0;" edge="1" parent="1">
          <mxGeometry width="50" height="50" relative="1" as="geometry">
            <mxPoint x="330" y="170.46000000000004" as="sourcePoint" />
            <mxPoint x="388.04999999999995" y="170" as="targetPoint" />
          </mxGeometry>
        </mxCell>
        <mxCell id="mYhhMWJ-sOo2fR_Xzeho-24" value="Conv" style="text;html=1;align=center;verticalAlign=middle;resizable=0;points=[];autosize=1;strokeColor=none;fillColor=none;" vertex="1" parent="1">
          <mxGeometry x="330.75" y="410" width="50" height="30" as="geometry" />
        </mxCell>
        <mxCell id="mYhhMWJ-sOo2fR_Xzeho-25" value="Conv" style="text;html=1;align=center;verticalAlign=middle;resizable=0;points=[];autosize=1;strokeColor=none;fillColor=none;" vertex="1" parent="1">
          <mxGeometry x="610" y="260" width="50" height="30" as="geometry" />
        </mxCell>
        <mxCell id="mYhhMWJ-sOo2fR_Xzeho-27" value="CAM" style="text;html=1;align=center;verticalAlign=middle;resizable=0;points=[];autosize=1;strokeColor=none;fillColor=none;" vertex="1" parent="1">
          <mxGeometry x="225.75" y="410" width="50" height="30" as="geometry" />
        </mxCell>
        <mxCell id="mYhhMWJ-sOo2fR_Xzeho-28" value="" style="endArrow=classic;html=1;rounded=0;entryX=0;entryY=0;entryDx=0;entryDy=70;entryPerimeter=0;" edge="1" parent="1" target="mYhhMWJ-sOo2fR_Xzeho-1">
          <mxGeometry width="50" height="50" relative="1" as="geometry">
            <mxPoint x="120" y="260" as="sourcePoint" />
            <mxPoint x="170" y="210" as="targetPoint" />
          </mxGeometry>
        </mxCell>
        <mxCell id="mYhhMWJ-sOo2fR_Xzeho-30" value="" style="endArrow=classic;html=1;rounded=0;exitX=1;exitY=1;exitDx=0;exitDy=0;exitPerimeter=0;entryX=0;entryY=0;entryDx=0;entryDy=0;entryPerimeter=0;" edge="1" parent="1" source="AUJroj7MBI5FYO78L8DD-1" target="mYhhMWJ-sOo2fR_Xzeho-2">
          <mxGeometry width="50" height="50" relative="1" as="geometry">
            <mxPoint x="150" y="350" as="sourcePoint" />
            <mxPoint x="200" y="300" as="targetPoint" />
          </mxGeometry>
        </mxCell>
        <mxCell id="mYhhMWJ-sOo2fR_Xzeho-33" value="Conv" style="text;html=1;align=center;verticalAlign=middle;resizable=0;points=[];autosize=1;strokeColor=none;fillColor=none;" vertex="1" parent="1">
          <mxGeometry x="110" y="200" width="50" height="30" as="geometry" />
        </mxCell>
        <mxCell id="mYhhMWJ-sOo2fR_Xzeho-34" value="Conv" style="text;html=1;align=center;verticalAlign=middle;resizable=0;points=[];autosize=1;strokeColor=none;fillColor=none;" vertex="1" parent="1">
          <mxGeometry x="110" y="350" width="50" height="30" as="geometry" />
        </mxCell>
        <mxCell id="mYhhMWJ-sOo2fR_Xzeho-35" value="" style="endArrow=classic;html=1;rounded=0;entryX=0;entryY=1;entryDx=0;entryDy=0;" edge="1" parent="1" target="mYhhMWJ-sOo2fR_Xzeho-7">
          <mxGeometry width="50" height="50" relative="1" as="geometry">
            <mxPoint x="420" y="390" as="sourcePoint" />
            <mxPoint x="470" y="340" as="targetPoint" />
          </mxGeometry>
        </mxCell>
        <mxCell id="mYhhMWJ-sOo2fR_Xzeho-36" value="" style="endArrow=classic;html=1;rounded=0;entryX=0;entryY=0;entryDx=0;entryDy=0;exitX=1;exitY=1;exitDx=0;exitDy=0;exitPerimeter=0;" edge="1" parent="1" source="mYhhMWJ-sOo2fR_Xzeho-4" target="mYhhMWJ-sOo2fR_Xzeho-7">
          <mxGeometry width="50" height="50" relative="1" as="geometry">
            <mxPoint x="430" y="260" as="sourcePoint" />
            <mxPoint x="480" y="210" as="targetPoint" />
          </mxGeometry>
        </mxCell>
        <mxCell id="mYhhMWJ-sOo2fR_Xzeho-38" value="(n,n/16,n,n)" style="text;html=1;align=center;verticalAlign=middle;resizable=0;points=[];autosize=1;strokeColor=none;fillColor=none;" vertex="1" parent="1">
          <mxGeometry x="150" y="208" width="80" height="30" as="geometry" />
        </mxCell>
        <mxCell id="mYhhMWJ-sOo2fR_Xzeho-39" value="(n,n/16,n,n)" style="text;html=1;align=center;verticalAlign=middle;resizable=0;points=[];autosize=1;strokeColor=none;fillColor=none;" vertex="1" parent="1">
          <mxGeometry x="265" y="210" width="80" height="30" as="geometry" />
        </mxCell>
        <mxCell id="mYhhMWJ-sOo2fR_Xzeho-40" value="(n,n/16,n,n)" style="text;html=1;align=center;verticalAlign=middle;resizable=0;points=[];autosize=1;strokeColor=none;fillColor=none;" vertex="1" parent="1">
          <mxGeometry x="160" y="470" width="80" height="30" as="geometry" />
        </mxCell>
        <mxCell id="mYhhMWJ-sOo2fR_Xzeho-41" value="(n,n/16,n,n)" style="text;html=1;align=center;verticalAlign=middle;resizable=0;points=[];autosize=1;strokeColor=none;fillColor=none;" vertex="1" parent="1">
          <mxGeometry x="265.75" y="470" width="80" height="30" as="geometry" />
        </mxCell>
        <mxCell id="mYhhMWJ-sOo2fR_Xzeho-42" value="(n,n/16,n,n)" style="text;html=1;align=center;verticalAlign=middle;resizable=0;points=[];autosize=1;strokeColor=none;fillColor=none;" vertex="1" parent="1">
          <mxGeometry x="370" y="210" width="80" height="30" as="geometry" />
        </mxCell>
        <mxCell id="mYhhMWJ-sOo2fR_Xzeho-43" value="(n,n/16,n,n)" style="text;html=1;align=center;verticalAlign=middle;resizable=0;points=[];autosize=1;strokeColor=none;fillColor=none;" vertex="1" parent="1">
          <mxGeometry x="370" y="470" width="80" height="30" as="geometry" />
        </mxCell>
        <mxCell id="mYhhMWJ-sOo2fR_Xzeho-44" value="(n,n/16,n,n)" style="text;html=1;align=center;verticalAlign=middle;resizable=0;points=[];autosize=1;strokeColor=none;fillColor=none;" vertex="1" parent="1">
          <mxGeometry x="545" y="330" width="80" height="30" as="geometry" />
        </mxCell>
        <mxCell id="mYhhMWJ-sOo2fR_Xzeho-45" value="&lt;div&gt;Input&lt;/div&gt;(n,n,n,n)" style="text;html=1;align=center;verticalAlign=middle;resizable=0;points=[];autosize=1;strokeColor=none;fillColor=none;" vertex="1" parent="1">
          <mxGeometry x="55" y="325" width="70" height="40" as="geometry" />
        </mxCell>
        <mxCell id="mYhhMWJ-sOo2fR_Xzeho-46" value="&lt;div&gt;Output&lt;/div&gt;(n,n,n,n)" style="text;html=1;align=center;verticalAlign=middle;resizable=0;points=[];autosize=1;strokeColor=none;fillColor=none;" vertex="1" parent="1">
          <mxGeometry x="665" y="325" width="70" height="40" as="geometry" />
        </mxCell>
        <mxCell id="mYhhMWJ-sOo2fR_Xzeho-47" value="&lt;font style=&quot;font-size: 16px;&quot;&gt;D2FFM&lt;/font&gt;" style="text;html=1;align=center;verticalAlign=middle;resizable=0;points=[];autosize=1;strokeColor=none;fillColor=none;" vertex="1" parent="1">
          <mxGeometry x="350" y="70" width="80" height="30" as="geometry" />
        </mxCell>
      </root>
    </mxGraphModel>
  </diagram>
</mxfile>
